<?xml version="1.0" standalone="no"?>
<!DOCTYPE svg PUBLIC "-//W3C//DTD SVG 20010904//EN"
 "http://www.w3.org/TR/2001/REC-SVG-20010904/DTD/svg10.dtd">
<svg version="1.0" xmlns="http://www.w3.org/2000/svg"
 width="512.000000pt" height="512.000000pt" viewBox="0 0 512.000000 512.000000"
 preserveAspectRatio="xMidYMid meet">

<g transform="translate(0.000000,512.000000) scale(0.100000,-0.100000)"
fill="#000000" stroke="none">
<path d="M0 2560 l0 -2560 2560 0 2560 0 0 2560 0 2560 -2560 0 -2560 0 0
-2560z m3030 1418 c33 -17 51 -35 68 -68 21 -43 22 -52 22 -377 l0 -333 733 0
733 0 44 -22 c33 -17 51 -35 68 -68 22 -44 22 -45 22 -550 0 -505 0 -506 -22
-550 -17 -33 -35 -51 -68 -68 l-44 -22 -733 0 -733 0 0 -332 c0 -307 -2 -336
-20 -375 -32 -72 -118 -109 -189 -81 -20 8 -407 310 -858 672 -862 689 -848
676 -848 756 0 80 -14 67 847 756 451 361 834 662 852 670 45 19 76 17 126 -8z
m-814 -7 c81 -37 111 -147 61 -222 -12 -19 -344 -292 -737 -607 -393 -315
-715 -577 -715 -582 0 -5 324 -269 720 -587 396 -318 730 -593 742 -612 77
-115 -43 -274 -174 -230 -22 7 -365 275 -858 669 -859 687 -855 684 -855 760
0 75 -2 74 839 748 443 356 822 655 841 664 44 23 84 22 136 -1z"/>
<path d="M2205 3033 c-319 -255 -580 -469 -580 -473 0 -8 1160 -940 1170 -940
3 0 5 109 5 243 0 232 1 245 23 287 16 33 34 51 67 68 43 21 53 22 337 22
l293 0 0 320 0 320 -293 0 c-284 0 -294 1 -337 23 -33 16 -51 34 -67 67 -22
42 -23 55 -23 287 0 134 -3 243 -7 242 -5 0 -269 -210 -588 -466z"/>
<path d="M3840 2560 l0 -320 280 0 280 0 0 320 0 320 -280 0 -280 0 0 -320z"/>
</g>
</svg>
